<svg version="1.2" xmlns="http://www.w3.org/2000/svg" viewBox="0 0 144 144" width="144" height="144">
	<title>logo</title>
	<style>
		.s0 { fill: #7d7f80 } 
		.s1 { fill: #ffffff } 
	</style>
	<path id="shape" class="s0" d="m50.6 21.2c0.2-5.2 9.6-20.4 24.6-20.2 22.3 0.3 19.2 23.4 17.5 31.2 7.1-9 23.3-13.1 32.2-4.1 7 5.5 9.6 25.2-1.9 35.4 14.2 1.9 17.3 12.1 17 16.7 0.4 25.8-17.8 29.9-25.1 30.9-46.6 70.3-142.3 12.6-101.3-57.2-12-25.2 13.1-37.8 13.1-37.8 13.1-6.9 23.9 5.1 23.9 5.1z"/>
	<path id="finger-0" class="s1" d="m39.7 22.9c10.5 4.5 9.1 17.9 8.1 20.5-3 6.2-10.4 16.8-20.9 11.7-8.2-5.6-7-14.2-4.5-21.6 2-5.2 8.7-12.6 17.3-10.6z"/>
	<path id="finger-1" class="s1" d="m76.9 14.2c10.6 4.5 9.1 17.8 8.1 20.4-2.9 6.2-10.3 16.9-20.9 11.7-8.1-5.6-7-14.2-4.5-21.6 2.1-5.2 8.8-12.5 17.3-10.5z"/>
	<path id="finger-2" class="s1" d="m112.6 35c9.6 6.3 5.9 19.2 4.4 21.6-4 5.6-13.1 14.8-22.6 7.9-7-6.9-4.4-15.2-0.7-22.1 2.9-4.7 10.8-10.8 18.9-7.4z"/>
	<path id="finger-3" class="s1" d="m122.5 70.1c9.6 6.3 5.8 19.2 4.4 21.5-4 5.6-13.1 14.8-22.6 8-7.1-7-4.4-15.3-0.7-22.1 2.9-4.8 10.8-10.9 18.9-7.4z"/>
	<path id="palm" class="s1" d="m72.9 58.9c9.4 4.1 6.8 17.6 7.8 25.8 4.1 7.1 6 18.6 1 28.6-3.4 6.6-11.1 12.3-25.4 6.4-6.2-2.6-8.7-11.1-8.7-11.1 0 0-8.8 1.6-15.4-2.1-6.5-3.8-10.1-12.4-8.7-20.9 1.3-6.3 2.3-17.5 24.2-18.9 7.5-0.4 13.1-10.8 25.2-7.8z"/>
</svg>